<?xml version="1.0" encoding="utf-8"?>
<!-- Generator: Adobe Illustrator 17.1.0, SVG Export Plug-In . SVG Version: 6.00 Build 0)  -->
<!DOCTYPE svg PUBLIC "-//W3C//DTD SVG 1.1//EN" "http://www.w3.org/Graphics/SVG/1.1/DTD/svg11.dtd">
<svg version="1.1" id="paint-brush-palette" xmlns="http://www.w3.org/2000/svg" xmlns:xlink="http://www.w3.org/1999/xlink"
	 x="0px" y="0px" viewBox="0 0 1009.9824 1009.9527" enable-background="new 0 0 1009.9824 1009.9527" xml:space="preserve">
<g id="paint-brush-palette-label">
	<path fill="#584D5C" d="M504.9643,1009.9527c278.9107,0,505.0181-226.0606,505.0181-504.9527c0-278.8686-226.1074-505-505.0181-505
		C226.1074,0,0,226.1314,0,505C0,783.8921,226.1074,1009.9527,504.9643,1009.9527z"/>
</g>
<g id="paint-brush-palette-paint-brush-palette">
	<path fill="#FFFFFF" d="M758.9423,305.9107c-3.3251-0.9004-8.2714-0.1787-3.826-7.211
		c4.4697-7.0429,11.7275-19.0742,4.9697-25.4326c-4.4092-4.1714-11.6797-0.6797-17.0186-5.375
		c-5.3036-4.7197-3.3369-16.6196-16.7207-22.9897c-13.3837-6.3169-24.9921,11.9834-25.4209,14.8618
		c-0.4764,2.9018,2.8594,10.2612,11.1788,13.2051c8.2832,2.9316,8.0566,4.3857,11.5839,11.8999
		c3.5518,7.5083,6.5674,14.0395,11.9893,16.6494c5.4355,2.6221,6.6035,10.5176,13.1816,7.0317
		c6.627-3.4805,8.1875,2.294,12.3711,7.1089c4.1953,4.791,6.2686-0.292,6.1494-3.7358
		C767.2373,308.5025,762.7558,306.9654,758.9423,305.9107z"/>
	<path fill="#FFFFFF" d="M730.8867,307.001c-0.3691-0.2563-0.7148-0.5366-1.1436-0.7329
		c-5.4228-2.6104-8.4385-9.1411-11.9892-16.6494c-3.5284-7.5147-3.2901-8.9746-11.5723-11.9063
		c-5.1611-1.8232-8.3906-5.3452-10-8.4438l-34.4902,47.2846l30.4746,26.9766L730.8867,307.001z"/>
	<path fill="#FFFFFF" d="M396.8447,356.395c-128.1958,65.8887-166.5479,192.1885-150.959,274.3633
		c6.5371,34.4307,35.9385,70.6856,70.6675,55.1084c29.4429-13.1806,47.0342-50.1504,83.0801-61.8896
		c22.3579-7.2939,46.5278,11.6914,66.4965,42.166c32.5479,49.6738,103.7452,109.8955,215.4405,52.0693
		c101.8515-52.7246,104.8066-214.124,28.7704-305.916C644.3867,332.708,516.4707,294.9038,396.8447,356.395z M393.2153,449.4263
		c-16.4888,0-29.8482-13.3716-29.8482-29.8662c0-16.4883,13.3594-29.8369,29.8482-29.8369
		c16.4946,0,29.8667,13.3486,29.8667,29.8369C423.082,436.0547,409.7099,449.4263,393.2153,449.4263z M512.538,427.8789
		c-21.2377,0-38.4472-17.2094-38.4472-38.4477c0-21.2315,17.2095-38.4473,38.4472-38.4473c21.25,0,38.4356,17.2158,38.4356,38.4473
		C550.9736,410.6695,533.788,427.8789,512.538,427.8789z M618.8818,694.4839c-38.1963,0-69.1475-30.9746-69.1475-69.1601
		c0-38.1973,30.9512-69.1485,69.1475-69.1485c38.1855,0,69.124,30.9512,69.124,69.1485
		C688.0058,663.5093,657.0673,694.4839,618.8818,694.4839z M639.4287,507.5445c-28.0674,0-50.8418-22.7574-50.8418-50.854
		c0-28.0904,22.7744-50.8482,50.8418-50.8482c28.0908,0,50.8661,22.7578,50.8661,50.8482
		C690.2949,484.7871,667.5195,507.5445,639.4287,507.5445z"/>
	<path fill="#FFFFFF" d="M684.4189,352.1226l-30.3076-26.8277l-12.8233,14.7725c12.2393,6.1377,23.9307,13.2109,34.9668,21.1245
		L684.4189,352.1226z"/>
	<path fill="#FFFFFF" d="M404.1084,637.6831c-16.6075,5.3985-29.0323,17.6973-42.1719,30.7119
		c-7.6748,7.6045-15.5586,15.3506-24.4492,21.7862l-41.5703,47.8984c-7.1211,8.1875-8.67,18.6992-3.4678,23.2998l3.164,2.7764
		c5.208,4.6006,15.4161,1.7646,22.6914-6.2803l105.0333-116.415c-4.9336-2.9317-9.6592-4.624-13.9083-4.624
		C407.6005,636.8365,405.8545,637.1226,404.1084,637.6831z"/>
</g>
</svg>
